# xmcd
#
# Track frame offsets:
#	150
#	21888
#	40183
#	53788
#	71306
#	99995
#	119607
#	137820
#	154462
#	177652
#	192207
#	218049
#	240735
#	259512
#	288454
#	303080
#	317046
#
# Disc length: 4625 seconds
#
# Revision: 0
# Processed by: cddbd v1.5.2PL0 Copyright (c) Steve Scherf et al.
# Submitted via: EasyCDDAExtractor 11.1.0.1
#
DISCID=f4120f11
DTITLE=Morgan - E' Successo A Morgan
DYEAR=2008
DGENRE=Pop
TTITLE0=Altrove
TTITLE1=Amore assurdo
TTITLE2=Tra 5 minuti
TTITLE3=Un giudice
TTITLE4=Me
TTITLE5=Crash
TTITLE6=Animali famigliari
TTITLE7=The baby
TTITLE8=Dormono sulla collina
TTITLE9=Canzone per natale
TTITLE10=Un ottico
TTITLE11=Una storia d'amore e di vanità
TTITLE12=Aria
TTITLE13=Un malato di cuore
TTITLE14=L'oceano di silenzio
TTITLE15=23 roses
TTITLE16=Il nostro concerto
EXTD=
EXTT0=
EXTT1=
EXTT2=
EXTT3=
EXTT4=
EXTT5=
EXTT6=
EXTT7=
EXTT8=
EXTT9=
EXTT10=
EXTT11=
EXTT12=
EXTT13=
EXTT14=
EXTT15=
EXTT16=
PLAYORDER=
